<mxfile host="app.diagrams.net" modified="2021-09-17T15:32:04.448Z" agent="5.0 (Windows NT 10.0; Win64; x64) AppleWebKit/537.36 (KHTML, like Gecko) Chrome/93.0.4577.82 Safari/537.36" etag="TLO72l1V3E1T29ZMZWV2" version="15.2.9" type="github">
  <diagram id="bm3KYLfe2CGArcG2uZxL" name="Page-1">
    <mxGraphModel dx="782" dy="482" grid="1" gridSize="10" guides="1" tooltips="1" connect="1" arrows="1" fold="1" page="1" pageScale="1" pageWidth="827" pageHeight="1169" math="0" shadow="0">
      <root>
        <mxCell id="0" />
        <mxCell id="1" parent="0" />
        <mxCell id="2_MCcdMYr1OsSEa-cmWu-3" value="" style="edgeStyle=orthogonalEdgeStyle;rounded=0;orthogonalLoop=1;jettySize=auto;html=1;" edge="1" parent="1" source="2_MCcdMYr1OsSEa-cmWu-1" target="2_MCcdMYr1OsSEa-cmWu-2">
          <mxGeometry relative="1" as="geometry" />
        </mxCell>
        <mxCell id="2_MCcdMYr1OsSEa-cmWu-1" value="MainWindow类" style="rounded=1;whiteSpace=wrap;html=1;" vertex="1" parent="1">
          <mxGeometry x="110" y="850" width="120" height="60" as="geometry" />
        </mxCell>
        <mxCell id="2_MCcdMYr1OsSEa-cmWu-2" value="worker类" style="rounded=1;whiteSpace=wrap;html=1;" vertex="1" parent="1">
          <mxGeometry x="110" y="980" width="120" height="60" as="geometry" />
        </mxCell>
        <mxCell id="2_MCcdMYr1OsSEa-cmWu-4" value="" style="shape=flexArrow;endArrow=classic;html=1;" edge="1" parent="1">
          <mxGeometry width="50" height="50" relative="1" as="geometry">
            <mxPoint x="240" y="879.5" as="sourcePoint" />
            <mxPoint x="290" y="879.5" as="targetPoint" />
          </mxGeometry>
        </mxCell>
        <mxCell id="2_MCcdMYr1OsSEa-cmWu-5" value="触发按钮事件&lt;br&gt;socket发送消息" style="rounded=0;whiteSpace=wrap;html=1;" vertex="1" parent="1">
          <mxGeometry x="290" y="850" width="120" height="60" as="geometry" />
        </mxCell>
        <mxCell id="2_MCcdMYr1OsSEa-cmWu-6" value="" style="strokeWidth=2;html=1;shape=mxgraph.flowchart.annotation_2;align=left;labelPosition=right;pointerEvents=1;" vertex="1" parent="1">
          <mxGeometry x="230" y="960" width="50" height="100" as="geometry" />
        </mxCell>
        <mxCell id="2_MCcdMYr1OsSEa-cmWu-7" value="开启Testconsole进程" style="rounded=0;whiteSpace=wrap;html=1;" vertex="1" parent="1">
          <mxGeometry x="280" y="930" width="120" height="60" as="geometry" />
        </mxCell>
        <mxCell id="2_MCcdMYr1OsSEa-cmWu-8" value="开启线程读共享内存数据" style="rounded=0;whiteSpace=wrap;html=1;" vertex="1" parent="1">
          <mxGeometry x="280" y="1030" width="120" height="60" as="geometry" />
        </mxCell>
        <mxCell id="2_MCcdMYr1OsSEa-cmWu-10" value="" style="shape=flexArrow;endArrow=classic;html=1;" edge="1" parent="1">
          <mxGeometry width="50" height="50" relative="1" as="geometry">
            <mxPoint x="409" y="1059.5" as="sourcePoint" />
            <mxPoint x="459" y="1059.5" as="targetPoint" />
          </mxGeometry>
        </mxCell>
        <mxCell id="2_MCcdMYr1OsSEa-cmWu-12" value="signal" style="ellipse;shape=cloud;whiteSpace=wrap;html=1;" vertex="1" parent="1">
          <mxGeometry x="460" y="1030" width="100" height="60" as="geometry" />
        </mxCell>
        <mxCell id="2_MCcdMYr1OsSEa-cmWu-13" value="" style="shape=flexArrow;endArrow=classic;html=1;" edge="1" parent="1">
          <mxGeometry width="50" height="50" relative="1" as="geometry">
            <mxPoint x="165" y="845" as="sourcePoint" />
            <mxPoint x="440" y="810" as="targetPoint" />
            <Array as="points">
              <mxPoint x="165" y="810" />
            </Array>
          </mxGeometry>
        </mxCell>
        <mxCell id="2_MCcdMYr1OsSEa-cmWu-14" value="" style="endArrow=classic;startArrow=none;html=1;" edge="1" parent="1" source="2_MCcdMYr1OsSEa-cmWu-15">
          <mxGeometry width="50" height="50" relative="1" as="geometry">
            <mxPoint x="500" y="1030" as="sourcePoint" />
            <mxPoint x="500" y="830" as="targetPoint" />
          </mxGeometry>
        </mxCell>
        <mxCell id="2_MCcdMYr1OsSEa-cmWu-15" value="Connect()" style="text;html=1;strokeColor=none;fillColor=none;align=center;verticalAlign=middle;whiteSpace=wrap;rounded=0;" vertex="1" parent="1">
          <mxGeometry x="480" y="910" width="40" height="20" as="geometry" />
        </mxCell>
        <mxCell id="2_MCcdMYr1OsSEa-cmWu-16" value="" style="endArrow=none;startArrow=classic;html=1;" edge="1" parent="1" target="2_MCcdMYr1OsSEa-cmWu-15">
          <mxGeometry width="50" height="50" relative="1" as="geometry">
            <mxPoint x="500" y="1030" as="sourcePoint" />
            <mxPoint x="500" y="830" as="targetPoint" />
          </mxGeometry>
        </mxCell>
        <mxCell id="2_MCcdMYr1OsSEa-cmWu-17" value="slots(处理函数)" style="rounded=1;whiteSpace=wrap;html=1;" vertex="1" parent="1">
          <mxGeometry x="450" y="780" width="100" height="50" as="geometry" />
        </mxCell>
        <mxCell id="2_MCcdMYr1OsSEa-cmWu-18" value="" style="shape=flexArrow;endArrow=classic;html=1;" edge="1" parent="1">
          <mxGeometry width="50" height="50" relative="1" as="geometry">
            <mxPoint x="560" y="805" as="sourcePoint" />
            <mxPoint x="620" y="880" as="targetPoint" />
            <Array as="points">
              <mxPoint x="620" y="805" />
            </Array>
          </mxGeometry>
        </mxCell>
        <mxCell id="2_MCcdMYr1OsSEa-cmWu-19" value="UI更新" style="rounded=1;whiteSpace=wrap;html=1;" vertex="1" parent="1">
          <mxGeometry x="560" y="890" width="120" height="50" as="geometry" />
        </mxCell>
      </root>
    </mxGraphModel>
  </diagram>
</mxfile>
